<?xml version="1.0" encoding="UTF-8" standalone="no"?>
<!-- Created with Inkscape (http://www.inkscape.org/) -->

<svg
   width="246mm"
   height="128mm"
   viewBox="0 0 246 128"
   version="1.1"
   id="svg1"
   xml:space="preserve"
   inkscape:version="1.3.2 (091e20ef0f, 2023-11-25, custom)"
   sodipodi:docname="preview-big.svg"
   xmlns:inkscape="http://www.inkscape.org/namespaces/inkscape"
   xmlns:sodipodi="http://sodipodi.sourceforge.net/DTD/sodipodi-0.dtd"
   xmlns="http://www.w3.org/2000/svg"
   xmlns:svg="http://www.w3.org/2000/svg"><sodipodi:namedview
     id="namedview1"
     pagecolor="#ffffff"
     bordercolor="#000000"
     borderopacity="0.25"
     inkscape:showpageshadow="false"
     inkscape:pageopacity="0.0"
     inkscape:pagecheckerboard="0"
     inkscape:deskcolor="#080808"
     inkscape:document-units="mm"
     inkscape:zoom="0.70733726"
     inkscape:cx="560.55297"
     inkscape:cy="279.21617"
     inkscape:window-width="1900"
     inkscape:window-height="983"
     inkscape:window-x="20"
     inkscape:window-y="20"
     inkscape:window-maximized="0"
     inkscape:current-layer="layer1" /><defs
     id="defs1" /><g
     inkscape:label="Layer 1"
     inkscape:groupmode="layer"
     id="layer1"><rect
       style="fill:#070f12;fill-opacity:1;stroke:none;stroke-width:8.3179;stroke-linecap:round;stroke-linejoin:round;stroke-dasharray:none;stroke-opacity:1;paint-order:normal"
       id="rect4"
       width="246"
       height="128"
       x="0"
       y="0"
       ry="0" /><path
       style="fill:none;stroke:#9ecfe0;stroke-width:10.9426;stroke-linecap:round;stroke-linejoin:round;stroke-dasharray:none;stroke-opacity:1"
       d="M 60.402337,25.055249 H 32.033732 c -8.674759,0.0062 -13.290009,6.072366 -13.464119,12.631447 v 52.851957 c 0.224637,7.273648 6.704925,13.557957 14.924269,13.567567"
       id="path1"
       sodipodi:nodetypes="ccccc" /><path
       style="fill:none;stroke:#9ecfe0;stroke-width:10.9426;stroke-linecap:round;stroke-linejoin:round;stroke-dasharray:none;stroke-opacity:1"
       d="m 52.98797,103.94907 33.153871,-0.1118 c 5.753394,0.0673 12.440328,-4.788747 12.118952,-12.599201 l -0.0246,-53.596032 c -0.0072,-7.590714 -5.954031,-12.855064 -14.780685,-12.73155"
       id="path2"
       sodipodi:nodetypes="ccccc" /><path
       style="fill:none;stroke:#9ecfe0;stroke-width:10.943;stroke-linecap:round;stroke-linejoin:round;stroke-dasharray:none;stroke-opacity:1"
       d="m 113.65509,87.079068 9.11194,5.355008 c 2.51847,1.235394 4.7389,-0.01267 4.82702,-3.334092 l 0.0203,-49.459642 c -0.009,-3.605757 -1.93555,-5.692051 -5.17723,-4.088471 L 99.048031,49.063919"
       id="path3"
       sodipodi:nodetypes="cccccc" /><path
       d="m 148.1528,56.818364 q -0.53815,0.02242 -0.89692,0.358769 v 0 0 q -0.33635,0.358768 -0.35877,0.896921 v 3.767072 0 3.767072 0 q 0.0224,0.538154 0.35877,0.896922 0.35877,0.336346 0.89692,0.358769 h 5.38153 v 0 q 0.49331,-0.04485 0.53816,-0.538153 -0.0448,-0.493307 -0.53816,-0.538153 h -5.38153 v 0 q -0.15696,-0.02242 -0.17938,-0.179385 v -3.408303 0 h 4.12584 v 0 q 0.49331,-0.04485 0.53815,-0.538153 -0.0448,-0.493307 -0.53815,-0.538153 h -4.12584 v 0 -3.049535 0 q 0.0224,-0.156961 0.17938,-0.179384 h 5.38153 v 0 q 0.49331,-0.04485 0.53816,-0.538153 -0.0448,-0.493307 -0.53816,-0.538153 z m 6.27845,0.04485 q 0.33635,-0.112115 0.583,0.156961 l 6.59238,7.825644 v 0 -7.489298 0 q 0.0448,-0.493307 0.53815,-0.538153 0.49331,0.04485 0.53816,0.538153 v 8.969219 0 q -0.0224,0.358769 -0.35877,0.51573 -0.33635,0.08969 -0.583,-0.156961 l -6.59238,-7.848067 v 0 7.489298 0 q -0.0448,0.493307 -0.53815,0.538153 -0.49331,-0.04485 -0.53815,-0.538153 v -8.969219 0 q 0.0224,-0.358769 0.35876,-0.493307 z m 13.05022,0.2915 q -0.13454,-0.313923 -0.49331,-0.336346 -0.35877,0.02242 -0.49331,0.336346 l -3.76707,8.969219 v 0 q -0.15696,0.470884 0.2915,0.695114 0.47089,0.156961 0.69512,-0.2915 l 0.76238,-1.816266 v 0 h 5.02276 v 0 l 0.76239,1.816266 v 0 q 0.22423,0.448461 0.69511,0.2915 0.44846,-0.22423 0.2915,-0.695114 z m 1.56961,6.48026 h -4.10342 4.10342 -4.10342 l 2.0405,-4.888224 v 0 z m 2.78046,-6.816606 q -0.49331,0.04485 -0.53815,0.538153 0.0448,0.493307 0.53815,0.538153 h 3.22892 v 0 8.431066 0 q 0.0448,0.493307 0.53815,0.538153 0.49331,-0.04485 0.53816,-0.538153 v -8.431066 0 h 3.22891 v 0 q 0.49331,-0.04485 0.53816,-0.538153 -0.0448,-0.493307 -0.53816,-0.538153 h -3.76707 z m 15.60644,5.022762 v 4.48461 -4.48461 4.48461 q 0.0448,0.493307 0.53816,0.538153 0.4933,-0.04485 0.53815,-0.538153 v -5.202147 0 -3.767072 0 q -0.0448,-0.493307 -0.53815,-0.538153 -0.49331,0.04485 -0.53816,0.538153 v 3.408303 0 h -6.45783 v 0 -3.408303 0 q -0.0448,-0.493307 -0.53816,-0.538153 -0.4933,0.04485 -0.53815,0.538153 v 8.969219 0 q 0.0448,0.493307 0.53815,0.538153 0.49331,-0.04485 0.53816,-0.538153 v -4.48461 0 z m 5.87484,-4.686416 q -0.13454,-0.313923 -0.4933,-0.336346 -0.35877,0.02242 -0.49331,0.336346 l -3.76707,8.969219 v 0 q -0.15696,0.470884 0.2915,0.695114 0.47088,0.156961 0.69511,-0.2915 l 0.76238,-1.816266 v 0 h 5.02277 v 0 l 0.76238,1.816266 v 0 q 0.22423,0.448461 0.69512,0.2915 0.44846,-0.22423 0.2915,-0.695114 z m 1.56962,6.48026 h -4.10342 4.10342 -4.10342 l 2.0405,-4.888224 v 0 z m 2.62349,-6.794183 q 0.3812,-0.08969 0.60543,0.22423 l 4.03614,6.121492 v 0 l 4.03615,-6.121492 v 0 q 0.22423,-0.313922 0.60543,-0.22423 0.35876,0.134538 0.38119,0.51573 v 8.969219 0 q -0.0448,0.493307 -0.53816,0.538153 -0.4933,-0.04485 -0.53815,-0.538153 v -7.175375 0 l -3.49799,5.314262 v 0 q -0.15697,0.246654 -0.44847,0.246654 -0.2915,0 -0.44846,-0.246654 l -3.49799,-5.314262 v 0 7.175375 0 q -0.0448,0.493307 -0.53816,0.538153 -0.4933,-0.04485 -0.53815,-0.538153 v -8.969219 0 q 0.0224,-0.381192 0.38119,-0.51573 z m 14.6871,1.053883 q -1.07631,0 -1.97323,0.538153 v 0 0 q -0.89692,0.51573 -1.43507,1.435075 -0.53816,0.941768 -0.53816,1.973228 0,1.031461 0.53816,1.973229 0.53815,0.919345 1.43507,1.435075 0.89692,0.538153 1.97323,0.538153 1.07631,0 1.97323,-0.538153 0.89692,-0.51573 1.43507,-1.435075 0.53816,-0.941768 0.53816,-1.973229 0,-1.03146 -0.53816,-1.973228 -0.53815,-0.919345 -1.43507,-1.435075 -0.89692,-0.538153 -1.97323,-0.538153 z m 5.02276,3.946456 q -0.0224,1.367806 -0.67269,2.511382 v 0 0 q -0.67269,1.143575 -1.83869,1.83869 -1.18842,0.672691 -2.51138,0.672691 -1.32296,0 -2.51138,-0.672691 -1.166,-0.695115 -1.83869,-1.83869 -0.65027,-1.143576 -0.67269,-2.511382 0.0224,-1.367805 0.67269,-2.511381 0.67269,-1.143575 1.83869,-1.83869 1.18842,-0.672691 2.51138,-0.672691 1.32296,0 2.51138,0.672691 1.166,0.695115 1.83869,1.83869 0.65027,1.143576 0.67269,2.511381 z m 0.35877,-4.977916 q 0.33635,-0.112115 0.583,0.156961 l 6.59237,7.825644 v 0 -7.489298 0 q 0.0448,-0.493307 0.53816,-0.538153 0.4933,0.04485 0.53815,0.538153 v 8.969219 0 q -0.0224,0.358769 -0.35877,0.51573 -0.33634,0.08969 -0.583,-0.156961 l -6.59237,-7.848067 v 0 7.489298 0 q -0.0448,0.493307 -0.53816,0.538153 -0.4933,-0.04485 -0.53815,-0.538153 v -8.969219 0 q 0.0224,-0.358769 0.35877,-0.493307 z m 9.50737,-0.04485 q -0.53815,0.02242 -0.89692,0.358769 v 0 0 q -0.33635,0.358768 -0.35877,0.896921 v 3.767072 0 3.767072 0 q 0.0224,0.538154 0.35877,0.896922 0.35877,0.336346 0.89692,0.358769 h 5.38153 v 0 q 0.49331,-0.04485 0.53816,-0.538153 -0.0448,-0.493307 -0.53816,-0.538153 h -5.38153 v 0 q -0.15696,-0.02242 -0.17938,-0.179385 v -3.408303 0 h 4.12584 v 0 q 0.49331,-0.04485 0.53815,-0.538153 -0.0448,-0.493307 -0.53815,-0.538153 h -4.12584 v 0 -3.049535 0 q 0.0224,-0.156961 0.17938,-0.179384 h 5.38153 v 0 q 0.49331,-0.04485 0.53816,-0.538153 -0.0448,-0.493307 -0.53816,-0.538153 z"
       id="text1"
       style="font-size:11.4806px;font-family:'Font Awesome 6 Free';-inkscape-font-specification:'Font Awesome 6 Free, Normal';fill:#e0eef3;stroke-width:1.58448;stroke-linecap:round;stroke-linejoin:round"
       aria-label="Enathamone" /><path
       d="m 34.722751,48.452272 q -1.710127,0.07126 -2.850211,1.140084 v 0 0 q -1.068829,1.140085 -1.140084,2.850211 v 11.970886 0 11.970886 0 q 0.07126,1.710127 1.140084,2.850211 1.140084,1.06883 2.850211,1.140085 h 17.101266 v 0 q 1.567616,-0.142511 1.710126,-1.710127 -0.14251,-1.567616 -1.710126,-1.710126 H 34.722751 v 0 q -0.498787,-0.07126 -0.570042,-0.570043 v -10.830801 0 h 13.11097 v 0 q 1.567616,-0.142511 1.710127,-1.710127 -0.142511,-1.567616 -1.710127,-1.710126 h -13.11097 v 0 -9.690718 0 q 0.07126,-0.498787 0.570042,-0.570042 h 17.101266 v 0 q 1.567616,-0.14251 1.710126,-1.710126 -0.14251,-1.567616 -1.710126,-1.710127 z m 20.022732,0.07126 q 1.211339,-0.285021 1.923892,0.712553 l 12.825949,19.45269 v 0 l 12.82595,-19.45269 v 0 q 0.712552,-0.997574 1.923892,-0.712553 1.140084,0.427532 1.21134,1.638872 v 28.502109 0 q -0.142511,1.567616 -1.710127,1.710127 -1.567616,-0.142511 -1.710126,-1.710127 v -22.801688 0 l -11.115823,16.8875 v 0 q -0.498787,0.783808 -1.425106,0.783808 -0.926318,0 -1.425105,-0.783808 L 56.954396,55.86282 v 0 22.801688 0 q -0.14251,1.567616 -1.710127,1.710127 -1.567616,-0.142511 -1.710126,-1.710127 v -28.502109 0 q 0.07126,-1.21134 1.21134,-1.638872 z"
       id="text3"
       style="font-size:36.4827px;font-family:'Font Awesome 6 Free';-inkscape-font-specification:'Font Awesome 6 Free, Normal';fill:none;stroke:#9ecfe0;stroke-width:6;stroke-linecap:round;stroke-linejoin:round"
       aria-label="EM" /><path
       style="font-size:5.13065px;font-family:'Font Awesome 6 Free';-inkscape-font-specification:'Font Awesome 6 Free, Normal';fill:#8fa3b6;stroke-width:0.708095;stroke-linecap:round;stroke-linejoin:round"
       d="m 150.34408,72.978634 q -0.54112,-0.521082 -1.23256,-0.521082 v 0 0 q -0.69143,0 -1.23255,0.521082 -0.50104,0.541123 -0.50104,1.242579 0,0.701456 0.50104,1.24258 0.54112,0.521081 1.23255,0.521081 0.69144,0 1.23256,-0.521081 0.16034,-0.140292 0.33069,0 0.14029,0.170353 0,0.350728 -0.44092,0.430894 -1.00208,0.581206 -0.56117,0.150312 -1.12233,0 -0.56116,-0.150312 -1.00208,-0.581206 -0.44092,-0.450936 -0.58121,-1.022122 -0.14029,-0.571186 0,-1.142371 0.14029,-0.571186 0.58121,-1.012101 0.44092,-0.440915 1.00208,-0.591227 0.56116,-0.140292 1.12233,0 0.56116,0.150312 1.00208,0.591227 0.14029,0.170353 0,0.340707 -0.17035,0.140291 -0.33069,0 z m 2.64549,-0.521082 q -0.48099,0 -0.88183,0.2405 v 0 0 q -0.40083,0.230478 -0.64133,0.641331 -0.2405,0.420874 -0.2405,0.88183 0,0.460957 0.2405,0.881831 0.2405,0.410853 0.64133,0.641331 0.40084,0.240499 0.88183,0.240499 0.481,0 0.88184,-0.240499 0.40083,-0.230478 0.64133,-0.641331 0.2405,-0.420874 0.2405,-0.881831 0,-0.460956 -0.2405,-0.88183 -0.2405,-0.410853 -0.64133,-0.641331 -0.40084,-0.2405 -0.88184,-0.2405 z m 2.24466,1.763661 q -0.01,0.611269 -0.30062,1.12233 v 0 0 q -0.30062,0.511061 -0.82171,0.821706 -0.5311,0.300624 -1.12233,0.300624 -0.59122,0 -1.12232,-0.300624 -0.52109,-0.310645 -0.82171,-0.821706 -0.2906,-0.511061 -0.30062,-1.12233 0.01,-0.611268 0.30062,-1.122329 0.30062,-0.511061 0.82171,-0.821706 0.5311,-0.300624 1.12232,-0.300624 0.59123,0 1.12233,0.300624 0.52109,0.310645 0.82171,0.821706 0.2906,0.511061 0.30062,1.122329 z m 0.16034,-2.224617 q 0.15031,-0.0501 0.26054,0.07014 l 2.94611,3.49726 v 0 -3.346948 0 q 0.02,-0.220457 0.2405,-0.240499 0.22046,0.02004 0.2405,0.240499 v 4.008321 0 q -0.01,0.160332 -0.16033,0.230478 -0.15031,0.04008 -0.26054,-0.07015 l -2.94612,-3.50728 v 0 3.346948 0 q -0.02,0.220457 -0.2405,0.240499 -0.22045,-0.02004 -0.2405,-0.240499 v -4.008321 0 q 0.01,-0.160333 0.16034,-0.220457 z m 3.84798,0 q 0.15032,-0.0501 0.26055,0.07014 l 2.94611,3.49726 v 0 -3.346948 0 q 0.02,-0.220457 0.2405,-0.240499 0.22046,0.02004 0.2405,0.240499 v 4.008321 0 q -0.01,0.160332 -0.16033,0.230478 -0.15032,0.04008 -0.26054,-0.07015 l -2.94612,-3.50728 v 0 3.346948 0 q -0.02,0.220457 -0.2405,0.240499 -0.22046,-0.02004 -0.2405,-0.240499 v -4.008321 0 q 0.01,-0.160333 0.16033,-0.220457 z m 4.24882,-0.02004 q -0.2405,0.01002 -0.40083,0.160333 v 0 0 q -0.15031,0.160333 -0.16033,0.400832 v 1.683494 0 1.683495 0 q 0.01,0.240499 0.16033,0.400832 0.16033,0.150312 0.40083,0.160333 h 2.405 v 0 q 0.22045,-0.02004 0.2405,-0.240499 -0.02,-0.220458 -0.2405,-0.2405 h -2.405 v 0 q -0.0701,-0.01002 -0.0802,-0.08017 v -1.523162 0 h 1.84383 v 0 q 0.22045,-0.02004 0.24049,-0.240499 -0.02,-0.220458 -0.24049,-0.240499 h -1.84383 v 0 -1.362829 0 q 0.01,-0.07015 0.0802,-0.08017 h 2.405 v 0 q 0.22045,-0.02004 0.2405,-0.240499 -0.02,-0.220457 -0.2405,-0.240499 h -2.405 z m 6.09265,1.00208 q -0.54112,-0.521082 -1.23256,-0.521082 v 0 0 q -0.69143,0 -1.23255,0.521082 -0.50104,0.541123 -0.50104,1.242579 0,0.701456 0.50104,1.24258 0.54112,0.521081 1.23255,0.521081 0.69144,0 1.23256,-0.521081 0.16033,-0.140292 0.33069,0 0.14029,0.170353 0,0.350728 -0.44092,0.430894 -1.00208,0.581206 -0.56117,0.150312 -1.12233,0 -0.56117,-0.150312 -1.00208,-0.581206 -0.44092,-0.450936 -0.58121,-1.022122 -0.14029,-0.571186 0,-1.142371 0.14029,-0.571186 0.58121,-1.012101 0.44091,-0.440915 1.00208,-0.591227 0.56116,-0.140292 1.12233,0 0.56116,0.150312 1.00208,0.591227 0.14029,0.170353 0,0.340707 -0.17036,0.140291 -0.33069,0 z m 0.64133,-1.00208 q -0.22046,0.02004 -0.2405,0.240499 0.02,0.220458 0.2405,0.240499 h 1.443 v 0 3.767822 0 q 0.02,0.220457 0.2405,0.240499 0.22045,-0.02004 0.2405,-0.240499 v -3.767822 0 h 1.44299 v 0 q 0.22046,-0.02004 0.2405,-0.240499 -0.02,-0.220457 -0.2405,-0.240499 h -1.68349 z m 6.81619,0.01002 q 0.21044,-0.0501 0.31065,0.150312 l 1.19247,3.316885 v 0 l 0.99206,-3.306864 v 0 q 0.0601,-0.160333 0.23048,-0.170354 0.17035,0.01002 0.23048,0.170354 l 0.99206,3.306864 v 0 l 1.19247,-3.316885 v 0 q 0.10021,-0.200416 0.31065,-0.150312 0.20041,0.100208 0.15031,0.310645 l -1.443,4.00832 v 0 q -0.0701,0.150312 -0.24049,0.160333 -0.16034,-0.01002 -0.22046,-0.170354 l -0.97202,-3.236718 v 0 l -0.97202,3.236718 v 0 q -0.0601,0.160333 -0.22046,0.170354 -0.17035,0 -0.23047,-0.160333 l -1.45302,-4.00832 v 0 q -0.0501,-0.210437 0.15031,-0.310645 z m 5.85215,-0.01002 q -0.22046,0.02004 -0.2405,0.240499 0.02,0.220458 0.2405,0.240499 h 1.12233 v 0 3.527322 0 h -1.12233 v 0 q -0.22046,0.02004 -0.2405,0.2405 0.02,0.220457 0.2405,0.240499 h 2.72566 v 0 q 0.22046,-0.02004 0.2405,-0.240499 -0.02,-0.220458 -0.2405,-0.2405 h -1.12233 v 0 -3.527322 0 h 1.12233 v 0 q 0.22046,-0.02004 0.2405,-0.240499 -0.02,-0.220457 -0.2405,-0.240499 h -1.36283 z m 3.20666,0 q -0.22046,0.02004 -0.2405,0.240499 0.02,0.220458 0.2405,0.240499 h 1.44299 v 0 3.767822 0 q 0.02,0.220457 0.2405,0.240499 0.22046,-0.02004 0.2405,-0.240499 v -3.767822 0 h 1.443 v 0 q 0.22045,-0.02004 0.2405,-0.240499 -0.02,-0.220457 -0.2405,-0.240499 h -1.6835 z m 6.97447,2.244659 v 2.004161 -2.004161 2.004161 q 0.02,0.220457 0.2405,0.240499 0.22046,-0.02004 0.2405,-0.240499 v -2.324826 0 -1.683495 0 q -0.02,-0.220457 -0.2405,-0.240499 -0.22046,0.02004 -0.2405,0.240499 v 1.523162 0 h -2.88599 v 0 -1.523162 0 q -0.02,-0.220457 -0.2405,-0.240499 -0.22046,0.02004 -0.2405,0.240499 v 4.008321 0 q 0.02,0.220457 0.2405,0.240499 0.22046,-0.02004 0.2405,-0.240499 v -2.004161 0 z m 3.6897,-2.224617 q 0.15032,-0.0501 0.26055,0.07014 l 2.94611,3.49726 v 0 -3.346948 0 q 0.02,-0.220457 0.2405,-0.240499 0.22046,0.02004 0.2405,0.240499 v 4.008321 0 q -0.01,0.160332 -0.16033,0.230478 -0.15032,0.04008 -0.26054,-0.07015 l -2.94612,-3.50728 v 0 3.346948 0 q -0.02,0.220457 -0.2405,0.240499 -0.22046,-0.02004 -0.2405,-0.240499 v -4.008321 0 q 0.01,-0.160333 0.16033,-0.220457 z m 4.24882,-0.02004 q -0.24049,0.01002 -0.40083,0.160333 v 0 0 q -0.15031,0.160333 -0.16033,0.400832 v 1.683494 0 1.683495 0 q 0.01,0.240499 0.16033,0.400832 0.16034,0.150312 0.40083,0.160333 h 2.405 v 0 q 0.22045,-0.02004 0.2405,-0.240499 -0.02,-0.220458 -0.2405,-0.2405 h -2.405 v 0 q -0.0701,-0.01002 -0.0802,-0.08017 v -1.523162 0 h 1.84383 v 0 q 0.22045,-0.02004 0.24049,-0.240499 -0.02,-0.220458 -0.24049,-0.240499 h -1.84383 v 0 -1.362829 0 q 0.01,-0.07015 0.0802,-0.08017 h 2.405 v 0 q 0.22045,-0.02004 0.2405,-0.240499 -0.02,-0.220457 -0.2405,-0.240499 h -2.405 z m 2.80583,0.01002 q 0.21043,-0.0501 0.31064,0.150312 l 1.19248,3.316885 v 0 l 0.99206,-3.306864 v 0 q 0.0601,-0.160333 0.23047,-0.170354 0.17036,0.01002 0.23048,0.170354 l 0.99206,3.306864 v 0 l 1.19248,-3.316885 v 0 q 0.10021,-0.200416 0.31064,-0.150312 0.20042,0.100208 0.15031,0.310645 l -1.44299,4.00832 v 0 q -0.0701,0.150312 -0.2405,0.160333 -0.16033,-0.01002 -0.22046,-0.170354 l -0.97202,-3.236718 v 0 l -0.97201,3.236718 v 0 q -0.0601,0.160333 -0.22046,0.170354 -0.17035,0 -0.23048,-0.160333 l -1.45302,-4.00832 v 0 q -0.0501,-0.210437 0.15032,-0.310645 z m 9.22118,0.470977 h 1.12233 -1.12233 1.12233 q 0.44092,0.01002 0.74154,0.300624 0.29061,0.300625 0.30063,0.74154 -0.01,0.440915 -0.30063,0.741539 -0.30062,0.290603 -0.74154,0.300624 h -1.20249 v 0 -2.00416 0 q 0.01,-0.07015 0.0802,-0.08017 z m -0.0802,2.565325 h 1.20249 -1.20249 1.20249 q 0.65135,-0.02004 1.07223,-0.450936 0.43089,-0.420873 0.45093,-1.072225 -0.02,-0.651352 -0.45093,-1.072226 -0.42088,-0.430894 -1.07223,-0.450936 h -1.12233 v 0 q -0.2405,0.01002 -0.40083,0.160333 -0.15031,0.160333 -0.16033,0.400832 v 2.244659 0 1.442996 0 q 0.02,0.220457 0.2405,0.240499 0.22045,-0.02004 0.2405,-0.240499 z m 3.28681,-3.046323 q -0.2405,0.01002 -0.40083,0.160333 v 0 0 q -0.15031,0.160333 -0.16033,0.400832 v 1.683494 0 1.683495 0 q 0.01,0.240499 0.16033,0.400832 0.16033,0.150312 0.40083,0.160333 h 2.40499 v 0 q 0.22046,-0.02004 0.2405,-0.240499 -0.02,-0.220458 -0.2405,-0.2405 h -2.40499 v 0 q -0.0701,-0.01002 -0.0802,-0.08017 v -1.523162 0 h 1.84382 v 0 q 0.22046,-0.02004 0.2405,-0.240499 -0.02,-0.220458 -0.2405,-0.240499 h -1.84382 v 0 -1.362829 0 q 0.01,-0.07015 0.0802,-0.08017 h 2.40499 v 0 q 0.22046,-0.02004 0.2405,-0.240499 -0.02,-0.220457 -0.2405,-0.240499 h -2.40499 z m 4.89015,0.480998 q -0.48099,0 -0.88183,0.2405 v 0 0 q -0.40083,0.230478 -0.64133,0.641331 -0.2405,0.420874 -0.2405,0.88183 0,0.460957 0.2405,0.881831 0.2405,0.410853 0.64133,0.641331 0.40084,0.240499 0.88183,0.240499 0.481,0 0.88184,-0.240499 0.40083,-0.230478 0.64133,-0.641331 0.2405,-0.420874 0.2405,-0.881831 0,-0.460956 -0.2405,-0.88183 -0.2405,-0.410853 -0.64133,-0.641331 -0.40084,-0.2405 -0.88184,-0.2405 z m 2.24466,1.763661 q -0.01,0.611269 -0.30062,1.12233 v 0 0 q -0.30062,0.511061 -0.82171,0.821706 -0.5311,0.300624 -1.12233,0.300624 -0.59122,0 -1.12233,-0.300624 -0.52108,-0.310645 -0.8217,-0.821706 -0.2906,-0.511061 -0.30062,-1.12233 0.01,-0.611268 0.30062,-1.122329 0.30062,-0.511061 0.8217,-0.821706 0.53111,-0.300624 1.12233,-0.300624 0.59123,0 1.12233,0.300624 0.52109,0.310645 0.82171,0.821706 0.2906,0.511061 0.30062,1.122329 z m 0.56117,-1.763661 h 1.12233 -1.12233 1.12233 q 0.44091,0.01002 0.74154,0.300624 0.2906,0.300625 0.30062,0.74154 -0.01,0.440915 -0.30062,0.741539 -0.30063,0.290603 -0.74154,0.300624 h -1.2025 v 0 -2.00416 0 q 0.01,-0.07015 0.0802,-0.08017 z m -0.0802,2.565325 h 1.2025 -1.2025 1.2025 q 0.65135,-0.02004 1.07222,-0.450936 0.4309,-0.420873 0.45094,-1.072225 -0.02,-0.651352 -0.45094,-1.072226 -0.42087,-0.430894 -1.07222,-0.450936 h -1.12233 v 0 q -0.2405,0.01002 -0.40083,0.160333 -0.15032,0.160333 -0.16034,0.400832 v 2.244659 0 1.442996 0 q 0.02,0.220457 0.2405,0.240499 0.22046,-0.02004 0.2405,-0.240499 z m 3.28683,-3.046323 q 0.22045,0.02004 0.2405,0.240499 v 3.767821 0 h 2.16449 v 0 q 0.22046,0.02004 0.2405,0.2405 -0.02,0.220457 -0.2405,0.240499 h -2.40499 v 0 q -0.22046,-0.02004 -0.2405,-0.240499 v -4.008321 0 q 0.02,-0.220457 0.2405,-0.240499 z m 3.20665,0 q -0.2405,0.01002 -0.40083,0.160333 v 0 0 q -0.15031,0.160333 -0.16033,0.400832 v 1.683494 0 1.683495 0 q 0.01,0.240499 0.16033,0.400832 0.16033,0.150312 0.40083,0.160333 h 2.405 v 0 q 0.22045,-0.02004 0.2405,-0.240499 -0.02,-0.220458 -0.2405,-0.2405 h -2.405 v 0 q -0.0701,-0.01002 -0.0802,-0.08017 v -1.523162 0 h 1.84382 v 0 q 0.22046,-0.02004 0.2405,-0.240499 -0.02,-0.220458 -0.2405,-0.240499 h -1.84382 v 0 -1.362829 0 q 0.01,-0.07015 0.0802,-0.08017 h 2.405 v 0 q 0.22045,-0.02004 0.2405,-0.240499 -0.02,-0.220457 -0.2405,-0.240499 h -2.405 z"
       id="text2"
       aria-label="Connect with New People" /></g></svg>
